<svg id="_0555_finance_analytics" xmlns="http://www.w3.org/2000/svg" viewBox="0 0 500 500" data-imageid="personal-finance-47" imageName="Personal Finance" class="illustrations_image" style="width: 166px;"><defs><style>.cls-1_personal-finance-47,.cls-2_personal-finance-47{fill:#fff;}.cls-3_personal-finance-47{fill:#f4a28c;}.cls-4_personal-finance-47{opacity:.43;}.cls-4_personal-finance-47,.cls-5_personal-finance-47{fill:none;}.cls-6_personal-finance-47{fill:#a5a5a5;}.cls-7_personal-finance-47{opacity:.03;}.cls-7_personal-finance-47,.cls-8_personal-finance-47,.cls-9_personal-finance-47,.cls-10_personal-finance-47{fill:#000001;}.cls-11_personal-finance-47,.cls-12_personal-finance-47{fill:#e6e6e6;}.cls-8_personal-finance-47,.cls-5_personal-finance-47{opacity:.12;}.cls-12_personal-finance-47{opacity:.3;}.cls-13_personal-finance-47{opacity:.58;}.cls-13_personal-finance-47,.cls-14_personal-finance-47,.cls-15_personal-finance-47{fill:#68e1fd;}.cls-2_personal-finance-47{opacity:.46;}.cls-16_personal-finance-47{fill:#24285b;}.cls-9_personal-finance-47{opacity:.08;}.cls-14_personal-finance-47{opacity:.73;}.cls-17_personal-finance-47{fill:#ffd200;}</style></defs><g id="bg_personal-finance-47"><path class="cls-12_personal-finance-47" d="m125.59,43.34c-48.29,15.88-86.69,54.51-93.51,126.8-5.74,60.91.17,168.78,80.95,187.96,157.19,37.32,280.04,55.03,328.47-48.76,44.44-95.24,41.07-237.66-46.98-263.77-62.28-18.47-165.44-36.25-268.93-2.22Z"/><ellipse class="cls-7_personal-finance-47" cx="250" cy="450.16" rx="238.75" ry="25.76"/></g><g id="tab_personal-finance-47"><path class="cls-13_personal-finance-47 targetColor" d="m71.61,386.82s-14.64-3.93-17.88-17.53c0,0,22.64-4.68,23.39,18.71l-5.5-1.18Z" style="fill: rgb(9, 206, 137);"/><path class="cls-14_personal-finance-47 targetColor" d="m73.4,385.36s-10.29-16.11-1.36-31.25c0,0,17.28,10.87,9.71,31.25h-8.35Z" style="fill: rgb(9, 206, 137);"/><path class="cls-15_personal-finance-47 targetColor" d="m76.03,385.36s5.33-17.08,21.63-20.38c0,0,3.11,11.06-10.48,20.38h-11.15Z" style="fill: rgb(9, 206, 137);"/><polygon class="cls-16_personal-finance-47" points="65.42 385.02 68.47 405.29 87.15 405.29 89.81 385.02 65.42 385.02"/><path class="cls-13_personal-finance-47 targetColor" d="m71.61,386.82s-14.64-3.93-17.88-17.53c0,0,22.64-4.68,23.39,18.71l-5.5-1.18Z" style="fill: rgb(9, 206, 137);"/><path class="cls-14_personal-finance-47 targetColor" d="m73.4,385.36s-10.29-16.11-1.36-31.25c0,0,17.28,10.87,9.71,31.25h-8.35Z" style="fill: rgb(9, 206, 137);"/><path class="cls-15_personal-finance-47 targetColor" d="m76.03,385.36s5.33-17.08,21.63-20.38c0,0,3.11,11.06-10.48,20.38h-11.15Z" style="fill: rgb(9, 206, 137);"/><polygon class="cls-16_personal-finance-47" points="65.42 385.02 68.47 405.29 87.15 405.29 89.81 385.02 65.42 385.02"/><rect class="cls-6_personal-finance-47" x="39.88" y="425.18" width="84.18" height="20.18" transform="translate(163.93 870.53) rotate(-180)"/><g class="cls-4_personal-finance-47"><rect class="cls-11_personal-finance-47" x="58.28" y="405.43" width="84.18" height="20.18"/></g><rect class="cls-11_personal-finance-47" x="100.87" y="81.1" width="304.44" height="364.25"/><rect class="cls-8_personal-finance-47" x="239.57" y="95.34" width="56.95" height="8.3"/><circle class="cls-1_personal-finance-47" cx="218.94" cy="100.4" r="9.27"/><rect class="cls-1_personal-finance-47" x="128.86" y="124.11" width="248.45" height="285.68"/><g class="cls-5_personal-finance-47"><rect class="cls-10_personal-finance-47" x="154.14" y="324.14" width="34.26" height="60.09"/><rect class="cls-10_personal-finance-47" x="209.98" y="302.17" width="34.26" height="82.06"/><rect class="cls-10_personal-finance-47" x="265.82" y="266.96" width="34.26" height="117.28"/><rect class="cls-10_personal-finance-47" x="321.66" y="234.93" width="34.26" height="149.3"/></g><circle class="cls-8_personal-finance-47" cx="253.09" cy="427.64" r="10.9"/><rect class="cls-6_personal-finance-47" x="186" y="248.35" width="48.62" height="8.19"/><rect class="cls-6_personal-finance-47" x="186" y="269.92" width="48.62" height="8.19"/><rect class="cls-15_personal-finance-47 targetColor" x="156.51" y="248.35" width="14.34" height="8.19" style="fill: rgb(9, 206, 137);"/><rect class="cls-17_personal-finance-47" x="156.51" y="269.92" width="14.34" height="8.19"/><path class="cls-15_personal-finance-47 targetColor" d="m295.41,183.97c0,23.38-18.95,42.32-42.32,42.32-8.7,0-16.8-2.63-23.53-7.14-11.34-7.6-18.79-20.52-18.79-35.18,0-23.37,18.95-42.32,42.32-42.32,20.4,0,37.44,14.47,41.42,33.71h.01c.21,1.14.41,2.29.57,3.43.21,1.69.32,3.42.32,5.18Z" style="fill: rgb(9, 206, 137);"/><path class="cls-17_personal-finance-47" d="m253.09,141.66v42.32l41.44-8.62s-5.78-33.98-41.44-33.7Z"/><path class="cls-2_personal-finance-47" d="m295.41,183.97c0,23.38-18.95,42.32-42.32,42.32-8.7,0-16.8-2.63-23.53-7.14l23.53-35.18,41.43-8.61c.21,1.14.41,2.3.57,3.43.21,1.69.32,3.42.32,5.18Z"/><rect class="cls-9_personal-finance-47" x="312.92" y="147.69" width="42.99" height="8.18"/><rect class="cls-9_personal-finance-47" x="312.92" y="165.56" width="42.99" height="8.18"/><rect class="cls-2_personal-finance-47" x="312.92" y="183.43" width="42.99" height="8.18"/><rect class="cls-2_personal-finance-47" x="331.23" y="201.31" width="24.69" height="8.18"/></g><g id="person_personal-finance-47"><path class="cls-9_personal-finance-47" d="m307.71,324.47s-43.12,9.66-60.06,39.65c-16.94,29.99,52.5,81.72,52.5,81.72l48.07.16,11.09-50.25-25.06-35.74-26.54-35.54Z"/><path class="cls-15_personal-finance-47 targetColor" d="m395.6,319.14s56.35-5.97,54.22,23.84c-2.13,29.81-33.71,93.33-33.71,93.33h-69.2s-52.52-80.56-26.97-106.46c25.55-25.91,31.38-3.67,75.66-10.71Z" style="fill: rgb(9, 206, 137);"/><polygon class="cls-16_personal-finance-47" points="416.21 446 374.08 457.37 336.72 438.4 331.04 428.29 368.71 428.29 428.63 428.29 416.21 446"/><path class="cls-15_personal-finance-47 targetColor" d="m422.78,351.46c-5.28-17.65,4.69-36.94,23.55-22.81,12.93,9.68,28.26,40.55,29.05,69.12,1.83,65.68-78.73-4.98-88.73-42.59l9.91-5.86s16.7,31.5,34.91,38.33c13.13,4.92-.9-10.12-8.69-36.2Z" style="fill: rgb(9, 206, 137);"/><path class="cls-2_personal-finance-47" d="m422.78,351.46c-5.28-17.65,4.69-36.94,23.55-22.81,12.93,9.68,28.26,40.55,29.05,69.12,1.83,65.68-78.73-4.98-88.73-42.59l9.91-5.86s16.7,31.5,34.91,38.33c13.13,4.92-.9-10.12-8.69-36.2Z"/><path class="cls-3_personal-finance-47" d="m393.62,319.58c-.37,2.52-.68,5.04-.76,7.58-.11,3.49-1.23,8.67-6.73,9.69-8.49,1.57-10.74-11.85-10.74-11.85,0,0-5.34-12.57,3.85-14.3,8.27-1.55,16.07-2.67,14.38,8.88Z"/><path class="cls-9_personal-finance-47" d="m360.91,338.51s5.26,11.05-8.05,33.71c-7.62,12.97,15.84,34.62,15.84,34.62l58.37,5.84-10.97,23.63h-69.2s-30.41-49.46-32.75-74.92c-2.35-25.45,46.76-22.89,46.76-22.89Z"/><path class="cls-3_personal-finance-47" d="m375.93,325.55s-.49-4.08-4.04-3.9c-3.55.17-2.15,7.79,4.04,3.9Z"/><path class="cls-3_personal-finance-47" d="m391.58,323.28s-1.25-3.91,2.06-5.23c3.31-1.31,5.19,6.19-2.06,5.23Z"/><polygon class="cls-17_personal-finance-47" points="413.46 424.69 418.34 380.2 343.64 380.2 351.09 426.97 350.03 432.96 414.25 433.47 413.46 424.69"/><path class="cls-15_personal-finance-47 targetColor" d="m383.39,446s-14.18,4.96-9.31,11.37c4.87,6.41,12.57-4.24,12.57-4.24l-3.26-7.13Z" style="fill: rgb(9, 206, 137);"/><path class="cls-9_personal-finance-47" d="m343.64,380.2l14.81,19.56c8.64,11.41,20.31,20.17,33.69,25.27l22.11,8.44-59.23-.47-5-.04,1.06-5.99-7.45-46.77Z"/><path class="cls-16_personal-finance-47" d="m393.81,319.08c1.38.55,3.57.5,4.65-.43.73-.63.93-1.67,1.03-2.62.47-4.69-.52-11.43-3.52-15.28-3.03-3.88-9.73-3.53-14-2.88-2.19.33-4.4.81-6.31,1.93-2.29,1.35-3.99,3.56-5.13,5.96-2.72,5.73-3.11,14.92,4.08,16.94,10.42,2.93,15.84-8.46,15.84-8.46.74,1.25,1.52,3.51,2.62,4.42.2.17.45.31.74.42Z"/><path class="cls-16_personal-finance-47" d="m382.96,443.52s57.3-29.25,62.18-13.69c4.88,15.56-34.6,24.6-60.09,25.54l-2.09-11.85Z"/><circle class="cls-1_personal-finance-47" cx="380.25" cy="404.17" r="6.4"/><path class="cls-16_personal-finance-47" d="m369.04,445.82s-45.7-45.28-55.08-31.93c-9.38,13.34,25.48,33.95,49.48,42.59l5.59-10.66Z"/><path class="cls-15_personal-finance-47 targetColor" d="m367.25,449.23s13.54,12.06,5.7,15.61-9.5-8.37-9.5-8.37l3.8-7.24Z" style="fill: rgb(9, 206, 137);"/><path class="cls-15_personal-finance-47 targetColor" d="m360.91,338.51c1.06-10.59-6.64-20.04-17.22-21.18-10.33-1.11-23.91-.43-35.98,7.14-23.42,14.68-49.33,26.39-42.94,53.01,6.39,26.62,52.88,37.79,52.88,37.79l6.2-10.1s-40.98-13.84-33.52-35.49c6.72-19.51,66.18,13.08,70.59-31.16Z" style="fill: rgb(9, 206, 137);"/><path class="cls-2_personal-finance-47" d="m360.91,338.51c1.06-10.59-6.64-20.04-17.22-21.18-10.33-1.11-23.91-.43-35.98,7.14-23.42,14.68-49.33,26.39-42.94,53.01,6.39,26.62,52.88,37.79,52.88,37.79l6.2-10.1s-40.98-13.84-33.52-35.49c6.72-19.51,66.18,13.08,70.59-31.16Z"/><path class="cls-3_personal-finance-47" d="m322.81,406.84s12.93,8.74,8.23,11.15c-4.7,2.41-12.62-3.99-12.62-3.99l4.39-7.16Z"/><path class="cls-16_personal-finance-47" d="m388.26,326.63c-.7-3.69-4.26-6.1-7.95-5.4s-6.1,4.26-5.4,7.95c.6,3.16,3.31,5.37,6.39,5.5l2.95,15.45,3.05-.58-2.95-15.45c2.82-1.25,4.51-4.31,3.91-7.47Zm-5.96,5.01c-2.06.39-4.05-.96-4.45-3.02s.96-4.05,3.02-4.45c2.06-.39,4.05.96,4.45,3.02s-.96,4.05-3.02,4.45Z"/><path class="cls-3_personal-finance-47" d="m394.82,350.35s-4.63-11.35-10.97-10.43c-6.34.92,3.56,14.81,3.56,14.81l7.41-4.38Z"/></g><g id="dollar_personal-finance-47"><rect class="cls-9_personal-finance-47" x="100.87" y="144.55" width="91.17" height="78.85"/><rect class="cls-16_personal-finance-47" x="87.66" y="135.77" width="96.17" height="78.85"/><path class="cls-1_personal-finance-47" d="m137.76,149.01c1.42,0,1.86.5,1.86,1.92v3.04c5.7.8,8.98,3.65,11.4,8.61.74,1.49.43,2.29-1.24,3.04l-3.04,1.36c-1.42.68-2.11.37-2.91-1.11-1.67-3.22-3.72-4.77-7.93-4.77-5.27,0-7.68,1.55-7.68,5.08,0,2.29,2.11,3.72,4.27,4.15,1.05.25,2.54.5,4.46.68,3.47.31,5.2.56,8.24,1.61,1.55.56,2.73,1.18,3.66,1.98,1.73,1.61,3.28,4.71,3.28,8.67,0,6.75-4.52,11.34-12.51,12.51v3.22c0,1.43-.43,1.92-1.86,1.92h-3.41c-1.43,0-1.92-.5-1.92-1.92v-3.16c-6.2-.81-10.35-3.96-12.39-9.54-.5-1.36,0-2.29,1.43-2.85l3.04-1.11c1.55-.56,2.23-.19,2.91,1.36,1.36,3.47,4.15,5.2,8.36,5.2,5.7,0,8.55-1.8,8.55-5.45,0-1.92-.87-3.1-2.66-3.84-1.8-.68-3.34-.93-6.13-1.18-3.41-.31-5.33-.68-8.3-1.8-1.49-.56-2.66-1.24-3.59-2.04-1.86-1.67-3.35-4.65-3.35-8.42,0-6.69,4.21-11.15,12.14-12.2v-3.04c0-1.43.5-1.92,1.92-1.92h3.41Z"/></g></svg>